<?xml version="1.0" encoding="UTF-8"?>
<svg id="Layer_1" data-name="Layer 1" xmlns="http://www.w3.org/2000/svg" viewBox="0 0 500 500">
  <defs>
    <style>
      .cls-1 {
        fill: #008d9f;
      }
    </style>
  </defs>
  <g>
    <path class="cls-1" d="M56.7,129.93h25.22v53.2h27.77v21.18h-52.99v-74.38Z"/>
    <path class="cls-1" d="M119.73,201.49c-3.97-2.94-5.96-7.25-5.96-12.93s1.93-10.11,5.8-13.09c3.87-2.98,9.59-4.47,17.19-4.47,2.27,0,4.75.27,7.45.8,2.69.53,4.93,1.15,6.7,1.86v-.85c0-1.84-1.17-3.3-3.51-4.36-2.34-1.06-5.43-1.6-9.26-1.6-6.17,0-11.81,1.28-16.92,3.83v-15.22c2.34-1.13,5.43-2.06,9.26-2.77,3.83-.71,8.05-1.06,12.66-1.06,10.21,0,18.05,1.88,23.52,5.64,5.46,3.76,8.19,9.08,8.19,15.96v31.07h-22.56v-3.72c-1.63,1.49-3.96,2.75-6.97,3.78-3.02,1.03-6.22,1.54-9.63,1.54-6.67,0-11.99-1.47-15.96-4.42ZM147.86,191.77c1.29-.55,2.3-1.23,3.04-2.04v-3.41c-2.34-1.35-4.86-2.02-7.56-2.02-1.49,0-2.66.39-3.51,1.17-.85.78-1.28,1.81-1.28,3.09,0,1.21.41,2.2,1.22,2.98,1,.96,2.57,1.33,4.7,1.11,1.16-.12,2.3-.41,3.37-.87Z"/>
    <path class="cls-1" d="M184.73,153.23h23.09v4.26c1.92-1.77,4.31-3.19,7.18-4.26,2.87-1.06,5.83-1.6,8.89-1.6,5.53,0,10.34,1.12,14.42,3.35,4.08,2.23,7.24,5.41,9.47,9.52,2.23,4.12,3.35,8.87,3.35,14.26s-1.12,10.04-3.35,14.15c-2.23,4.12-5.41,7.31-9.52,9.58-4.11,2.27-8.9,3.41-14.36,3.41-2.98,0-5.84-.44-8.57-1.33-2.73-.89-4.95-2.04-6.65-3.46v26.5h-23.94v-74.38ZM223.94,185.15c1.6-1.49,2.39-3.65,2.39-6.49s-.8-4.96-2.39-6.38c-1.6-1.42-3.81-2.13-6.65-2.13-1.85,0-3.55.43-5.11,1.28-1.56.85-2.73,2.02-3.51,3.51v7.66c.78,1.49,1.95,2.66,3.51,3.51,1.56.85,3.26,1.28,5.11,1.28,2.84,0,5.05-.74,6.65-2.23Z"/>
    <path class="cls-1" d="M259.77,129.93h28.52c8.23,0,15.45,1.49,21.65,4.47,6.21,2.98,11.01,7.24,14.42,12.77,3.4,5.53,5.11,12.06,5.11,19.58,0,12.34-3.67,21.69-11.01,28.04-7.34,6.35-17.4,9.52-30.17,9.52h-28.52v-74.38ZM289.99,180.9c9.22,0,13.83-4.72,13.83-14.15,0-4.33-1.21-7.64-3.62-9.95-2.41-2.3-5.82-3.46-10.21-3.46h-5v27.56h5Z"/>
    <path class="cls-1" d="M340.01,201.49c-3.97-2.94-5.96-7.25-5.96-12.93s1.93-10.11,5.8-13.09c3.87-2.98,9.59-4.47,17.19-4.47,2.27,0,4.75.27,7.45.8,2.69.53,4.93,1.15,6.7,1.86v-.85c0-1.84-1.17-3.3-3.51-4.36-2.34-1.06-5.43-1.6-9.26-1.6-6.17,0-11.81,1.28-16.92,3.83v-15.22c2.34-1.13,5.43-2.06,9.26-2.77,3.83-.71,8.05-1.06,12.66-1.06,10.21,0,18.05,1.88,23.52,5.64,5.46,3.76,8.19,9.08,8.19,15.96v31.07h-22.56v-3.72c-1.63,1.49-3.96,2.75-6.97,3.78-3.02,1.03-6.22,1.54-9.63,1.54-6.67,0-11.99-1.47-15.96-4.42ZM368.14,191.77c1.29-.55,2.3-1.23,3.04-2.04v-3.41c-2.34-1.35-4.86-2.02-7.56-2.02-1.49,0-2.66.39-3.51,1.17-.85.78-1.28,1.81-1.28,3.09,0,1.21.41,2.2,1.22,2.98,1,.96,2.57,1.33,4.7,1.11,1.16-.12,2.3-.41,3.37-.87Z"/>
    <path class="cls-1" d="M412.24,200.05c-3.55-3.9-5.32-9.11-5.32-15.64v-15.43h-6.92v-15.75h6.92v-15.32h23.94v15.32h11.07v15.75h-11.07v11.92c0,2.34.43,4.01,1.28,5,.85.99,2.3,1.49,4.36,1.49,2.62,0,5.14-.74,7.56-2.23v17.66c-2.2,1.06-4.51,1.84-6.92,2.34-2.41.5-5.46.74-9.15.74-6.95,0-12.2-1.95-15.75-5.85Z"/>
  </g>
  <g>
    <g>
      <path class="cls-1" d="M134.01,329.91l13.46-11.88c10.32-9.13,17.8-18.02,22.43-26.7,4.64-8.67,6.96-19.44,6.96-32.3,0-9.13-2.39-17.43-7.18-24.91-4.79-7.47-11.66-13.37-20.63-17.72-8.98-4.33-19.67-6.5-32.08-6.5-10.78,0-21.17,1.39-31.18,4.14-10.03,2.78-22.21,8.79-29.09,13.57l-.76,51.27c5.99-4.62,17.2-11.62,24.68-14.47,7.47-2.84,14.66-4.26,21.54-4.26s12.19,1.34,15.48,4.04c3.29,2.69,4.94,6.13,4.94,10.32,0,5.08-2.44,10.28-7.29,15.59-4.87,5.31-12.84,12.67-23.9,22.09-5.98,4.64-11.51,9.35-16.6,14.13l-18.85,16.84v26.91h120.92v-40.16h-42.85Z"/>
      <path class="cls-1" d="M256.28,213.26l-68.36,90.86-.08.11-4.48,5.95v30.9h76.96v-36.85h-21.8l.08-.11,2.2-2.92,8.04-10.72,11.48-15.3v22.78h45.31v-84.7h-49.35ZM259.77,347.65v22.42h45.87v-22.42h-45.87Z"/>
      <path class="cls-1" d="M326.95,213.26v40.16h61.69l-20.3,44.54h10.01c8.06-11.59,21.41-18.66,35.67-18.66,4.62.01,9.13.75,13.4,2.13l16.64-36.54v-31.63h-117.11Z"/>
    </g>
    <path class="cls-1" d="M443.47,343.31c-6.88,10.23-18.35,16.33-30.71,16.3-7.14.02-13.92-2-19.69-5.64-5.02-3.16-9.29-7.54-12.38-12.89h-197.33v-31.04l4.46-5.92h192.89c6.59-11.49,18.69-18.56,32.05-18.56,3.69.01,7.3.57,10.73,1.6,8.07,2.44,15.16,7.6,19.98,14.76.69,1.04.76,2.4.16,3.48-.58,1.1-1.73,1.82-2.97,1.82h-25.67s-6.67,15.4-6.67,15.4l6.64,15.38h25.7c1.24,0,2.39.68,3,1.81.57,1.1.52,2.44-.19,3.5Z"/>
  </g>
</svg>